<svg width="26" height="26" viewBox="0 0 26 26" fill="none" xmlns="http://www.w3.org/2000/svg">
<path d="M13.0006 2.16602C15.0118 2.16602 16.9406 2.96497 18.3628 4.38712C19.785 5.80927 20.5839 7.73812 20.5839 9.74935H21.7474C22.0203 9.74936 22.2831 9.85234 22.4833 10.0377C22.6836 10.2231 22.8065 10.4772 22.8275 10.7493L23.744 22.6659C23.7661 22.9524 23.6735 23.2359 23.4866 23.4541C23.2997 23.6723 23.0338 23.8073 22.7473 23.8294L22.6639 23.8327H3.33724C3.04992 23.8327 2.77437 23.7185 2.57121 23.5154C2.36804 23.3122 2.25391 23.0367 2.25391 22.7493L2.25716 22.6659L3.17366 10.7493C3.19467 10.4772 3.31757 10.2231 3.51781 10.0377C3.71805 9.85234 3.98087 9.74936 4.25374 9.74935H5.41724C5.41724 7.73812 6.2162 5.80927 7.63835 4.38712C9.0605 2.96497 10.9893 2.16602 13.0006 2.16602ZM20.7432 11.916H5.25691L4.50616 21.666H21.4939L20.7432 11.916ZM15.1672 14.0827V16.2493H10.8339V14.0827H15.1672ZM13.0006 4.33268C11.6047 4.33276 10.2628 4.87169 9.25465 5.83706C8.24648 6.80244 7.6499 8.11975 7.58932 9.51427L7.58391 9.74935H18.4172C18.4172 8.35351 17.8782 7.01159 16.9129 6.00342C15.9475 4.99526 14.6302 4.39868 13.2357 4.3381L13.0006 4.33268Z" fill="#151515"/>
</svg>
