<svg width="17" height="17" viewBox="0 0 22 22" fill="none" xmlns="http://www.w3.org/2000/svg">
<path d="M15.666 15.666L20.3327 20.3327L15.666 15.666ZM1.66602 9.66602C1.66602 10.7166 1.87294 11.7569 2.27498 12.7275C2.67702 13.6981 3.26629 14.58 4.00916 15.3229C4.75203 16.0657 5.63394 16.655 6.60455 17.0571C7.57515 17.4591 8.61544 17.666 9.66602 17.666C10.7166 17.666 11.7569 17.4591 12.7275 17.0571C13.6981 16.655 14.58 16.0657 15.3229 15.3229C16.0657 14.58 16.655 13.6981 17.0571 12.7275C17.4591 11.7569 17.666 10.7166 17.666 9.66602C17.666 7.54428 16.8232 5.50945 15.3229 4.00916C13.8226 2.50887 11.7877 1.66602 9.66602 1.66602C7.54428 1.66602 5.50945 2.50887 4.00916 4.00916C2.50887 5.50945 1.66602 7.54428 1.66602 9.66602V9.66602Z" stroke="#311C1C" stroke-width="2" stroke-linecap="round" stroke-linejoin="round"/>
</svg>
