<svg width="32" height="32" viewBox="0 0 32 32" fill="none" xmlns="http://www.w3.org/2000/svg">
<path d="M6.66602 26.6673V25.334C6.66602 22.8586 7.64935 20.4847 9.39969 18.7343C11.15 16.984 13.524 16.0007 15.9993 16.0007V16.0007C18.4747 16.0007 20.8487 16.984 22.599 18.7343C24.3494 20.4847 25.3327 22.8586 25.3327 25.334V26.6673H6.66602ZM15.9993 16.0007C17.4138 16.0007 18.7704 15.4387 19.7706 14.4386C20.7708 13.4384 21.3327 12.0818 21.3327 10.6673C21.3327 9.25283 20.7708 7.89628 19.7706 6.89608C18.7704 5.89589 17.4138 5.33398 15.9993 5.33398C14.5849 5.33398 13.2283 5.89589 12.2281 6.89608C11.2279 7.89628 10.666 9.25283 10.666 10.6673C10.666 12.0818 11.2279 13.4384 12.2281 14.4386C13.2283 15.4387 14.5849 16.0007 15.9993 16.0007V16.0007Z" stroke="#311C1C" stroke-width="2" stroke-linecap="round" stroke-linejoin="round"/>
</svg>
